<?xml version="1.0" encoding="UTF-8" standalone="no"?>
<!DOCTYPE svg PUBLIC "-//W3C//DTD SVG 1.1//EN" "http://www.w3.org/Graphics/SVG/1.1/DTD/svg11.dtd">
<svg xmlns:xl="http://www.w3.org/1999/xlink" xmlns:dc="http://purl.org/dc/elements/1.1/" xmlns="http://www.w3.org/2000/svg" version="1.1" viewBox="0 0 350 200" width="350" height="200">
  <defs/>
  <metadata> </metadata>
  <g id="Canvas_1" stroke-opacity="1" stroke="none" stroke-dasharray="none" fill="none" fill-opacity="1">
    <title>Canvas 1</title>
    <g id="Canvas_1_Layer_1">
      <title>Layer 1</title>
      <g id="Group_2">
        <title>Layer_2</title>
        <g id="Group_3">
          <title>svg2</title>
          <g id="Graphic_26"/>
          <g id="Graphic_25">
            <title>path6</title>
            <path d="M 122.57 20.48 L 122.64 20.48 C 129.42 27.26 136.23 34 143 40.84 C 140 43.95 136.85 47 133.79 50.08 L 122.68 61.17 C 122.59095 61.07241 122.47077 61.008786 122.34 60.99 C 121.56 60.31 120.86 59.53 120.12 58.81 L 102.3 41 C 102.13 40.88 102.3 40.72 102.38 40.62 C 107.67333 35.353333 112.95333 30.073333 118.22 24.78 C 119.72 23.39 121.12 21.91 122.57 20.48 Z" fill="#bbbcc1"/>
          </g>
          <g id="Graphic_24">
            <title>path8</title>
            <path d="M 170.54 20.48 L 170.6 20.48 C 175.44 25.2 180.19 30 185 34.81 C 186.91 36.74 188.88 38.61 190.74 40.59 L 170.35 61 C 170.08162 60.776365 169.82463 60.5394 169.58 60.29 C 163.19 53.95 156.86 47.56 150.48 41.22 C 150.39 41.1 150.15 40.95 150.3 40.78 C 157 34 163.81 27.25 170.54 20.48 Z" fill="#bbbcc1"/>
          </g>
          <g id="Graphic_23">
            <title>path10</title>
            <path d="M 218.57 20.48 L 218.64 20.48 C 224.39333 26.24 230.15 31.993333 235.91 37.74 C 236.91 38.74 237.91 39.66 238.81 40.74 C 232.12 47.43 225.41 54.1 218.75 60.82 C 217.1 59.28 215.56 57.64 213.95 56.07 L 198.56 40.67 C 198.74169 40.30488 199.0052 39.98662 199.33 39.74 Z" fill="#bbbcc1"/>
          </g>
          <g id="Graphic_22">
            <title>path12</title>
            <path d="M 50.25 44.45 C 50.39 44.25 50.57 44.45 50.69 44.56 C 55.02 48.93 59.41 53.26 63.77 57.62 C 65.17 59.06 66.64 60.42 68 61.9 L 34.75 61.9 C 34.75 61.38 34.75 60.9 34.75 60.35 L 34.46 60.35 C 34.706675 60.02675 34.981046 59.725614 35.28 59.45 Z" fill="#bbbcc1"/>
          </g>
          <g id="Graphic_21">
            <title>path14</title>
            <path d="M 98.2 44.47 C 98.32 44.3 98.54 44.38 98.65 44.52 C 105.31667 51.186667 112.01333 57.88333 118.74 64.61 C 112.02 71.33 105.29667 78.05 98.57 84.77 C 91.79 77.95667 84.99667 71.15667 78.19 64.37 L 78.47 64.2 C 85.04333 57.62 91.62 51.043333 98.2 44.47 Z" fill="#bbbcc1"/>
          </g>
          <g id="Graphic_20">
            <title>path16</title>
            <path d="M 145.75 45 C 145.97 44.8 146.14 44.51 146.43 44.41 C 146.68946 44.57736 146.9221 44.78302 147.12 45.02 L 158.78 56.67 C 161.41 59.34 164.1 61.94 166.7 64.67 C 159.94 71.43 153.18 78.18667 146.42 84.94 C 142.84 81.39 139.29 77.81 135.72 74.25 C 132.56 71.06 129.34 67.95 126.19 64.76 C 126.23264 64.59075 126.31882 64.43561 126.44 64.31 C 132.89 57.82 139.3 51.37 145.75 45 Z" fill="#bbbcc1"/>
          </g>
          <g id="Graphic_19">
            <title>path18</title>
            <path d="M 274.25 60.78 C 279.76 55.29 285.25 49.78 290.77 44.3 L 304.6 58.12 C 305.32 58.88 306.12 59.57 306.8 60.37 C 306.41 60.37 306.02 60.37 305.64 60.37 C 305.64 60.96 305.64 61.56 305.64 62.15 C 294.76 62.15 283.87 62.15 272.98 62.15 C 273.35 61.65 273.81 61.23 274.25 60.78 Z" fill="#bbbcc1"/>
          </g>
          <g id="Graphic_18">
            <title>path20</title>
            <path d="M 194.35 45 C 194.47 44.79 194.64 45 194.74 45.1 L 214.56 65 C 207.9 71.74 201.15 78.4 194.47 85.13 C 193.84777 84.59439 193.25364 84.02696 192.69 83.43 L 177.21 67.89 C 176.27 66.89 175.21 66.03 174.38 65 C 181.04 58.33333 187.69667 51.666667 194.35 45 Z" fill="#bbbcc1"/>
          </g>
          <g id="Graphic_17">
            <title>path22</title>
            <path d="M 236.48 50.85 C 238.48 48.85 240.48 46.85 242.48 44.92 C 243.1 45.42 243.62 46.05 244.2 46.6 L 262.55 65 C 256.11667 71.46 249.67333 77.91 243.22 84.35 C 242.96902 84.64481 242.67585 84.9009 242.35 85.11 C 241.25 83.93 240.08 82.82 238.95 81.67 C 233.41 76.11 227.84 70.59 222.31 65.01 C 227 60.28 231.74 55.55 236.48 50.85 Z" fill="#bbbcc1"/>
          </g>
          <g id="Graphic_16">
            <title>path24</title>
            <path d="M 34.75 67.4 L 68 67.4 C 67.86285 67.60222 67.70537 67.78986 67.53 67.96 L 54.32 81.18 C 53 82.48 51.72 83.84 50.32 85.1 C 45.52 80.26 40.68 75.46 35.87 70.63 C 35.452895 70.24981 35.065124 69.83864 34.71 69.4 C 34.77 68.73 34.75 68.07 34.75 67.4 Z" fill="#bbbcc1"/>
          </g>
          <g id="Graphic_15">
            <title>path26</title>
            <path d="M 273.51 67.78 L 305.63 67.78 L 305.63 69.39 L 306.36 69.39 C 306.03028 69.81622 305.66206 70.211216 305.26 70.57 L 295.79 80.04 C 294.09 81.71 292.45 83.45 290.7 85.04 C 285.61333 79.94 280.51333 74.84 275.4 69.74 C 274.72846 69.12804 274.09714 68.47334 273.51 67.78 Z" fill="#bbbcc1"/>
          </g>
          <g id="Graphic_14">
            <title>path28</title>
            <path d="M 218.48 68.84 L 218.75 68.55 C 221.48 71.31 224.27 74.01 227.01 76.76 C 231.01 80.76 235.01 84.76 239.01 88.76 C 238.13 89.83 237.01 90.7 236.07 91.7 L 223.7 104.08 C 221.98 105.76 220.32 107.52 218.57 109.16 C 213.52333 104.12667 208.46333 99.07333 203.39 94 C 201.65 92.28 199.96 90.51 198.18 88.83 C 199.1 87.75 200.18 86.83 201.18 85.83 C 206.9 80.13 212.59 74.4 218.32 68.71 Z" fill="#bbbcc1"/>
          </g>
          <g id="Graphic_13">
            <title>path30</title>
            <path d="M 150.39 89 C 157.18333 82.22 163.97 75.43333 170.75 68.64 C 171.75 69.46 172.58 70.44 173.51 71.32 L 191 88.79 C 184.20667 95.59667 177.40667 102.39667 170.6 109.19 C 168.74 107.4 166.95 105.54 165.12 103.74 C 160.21 98.82 155.29 93.92 150.39 89 Z" fill="#bbbcc1"/>
          </g>
          <g id="Graphic_12">
            <title>path32</title>
            <path d="M 102.42 89 L 122.57 68.85 L 142.75 89 C 137.13 94.64 131.5 100.27333 125.86 105.9 C 124.75 106.97 123.71 108.12 122.57 109.15 C 117.09 103.72 111.66 98.24 106.2 92.8 C 105 91.54 103.63 90.32 102.42 89 Z" fill="#bbbcc1"/>
          </g>
          <g id="Graphic_11">
            <title>path35</title>
            <path d="M 194.58 36.7 C 195.94 37.98 197.23 39.34 198.58 40.64 L 214 56 C 215.61 57.57 217.15 59.21 218.8 60.75 C 225.46 54.03 232.17 47.36 238.86 40.67 C 240.12 39.43 241.35 38.16 242.62 36.93 C 251.02 45.32 259.41 53.74 267.84 62.1 C 269.56 62.1 271.28 62.1 273 62.1 C 283.89 62.1 294.78 62.1 305.66 62.1 C 305.66 61.51 305.66 60.91 305.66 60.32 C 306.04 60.32 306.43 60.32 306.82 60.32 C 309.68 60.32 312.54 60.32 315.41 60.32 L 315.41 69.32 C 312.41 69.32 309.41 69.32 306.41 69.32 L 305.68 69.32 L 305.68 67.78 L 273.51 67.78 C 270.79 67.78 268.07 67.78 265.35 67.78 C 264.42 66.85 263.49 65.91 262.55 64.98 L 244.16 46.6 C 243.58 46.05 243.06 45.42 242.44 44.92 C 240.44 46.87 238.44 48.92 236.44 50.85 C 231.7 55.55 227 60.28 222.27 64.99 L 218.71 68.55 L 218.44 68.84 L 218.26 68.68 L 214.56 65 L 194.74 45.12 C 194.64 45.02 194.47 44.81 194.35 45.02 C 187.68333 51.686667 181.01667 58.35333 174.35 65.02 C 173.13 66.22 171.92 67.43 170.72 68.65 C 163.95333 75.43 157.17667 82.21333 150.39 89 C 149.1 90.27 147.84 91.56 146.55 92.82 L 142.75 89 L 122.57 68.85 L 102.42 89 C 101.17 90.22 99.96 91.48 98.7 92.69 C 90.28 84.23 81.86 75.80333 73.44 67.41 C 71.63 67.41 69.82 67.41 68.01 67.41 L 34.75 67.41 C 34.75 68.08 34.75 68.74 34.75 69.41 C 31.5 69.41 28.25 69.41 25 69.41 L 25 60.41 L 33.34 60.41 C 33.705827 60.44509 34.074173 60.44509 34.44 60.41 L 34.73 60.41 C 34.78 60.93 34.73 61.41 34.73 61.96 L 75.73 61.96 C 76.55 62.79 77.38 63.6 78.2 64.43 C 85 71.21667 91.79333 78.01667 98.58 84.83 C 105.30667 78.12333 112.03 71.40333 118.75 64.67 C 119.95 63.46 121.17 62.28 122.35 61.05 C 122.48077 61.068786 122.60095 61.13241 122.69 61.23 C 123.85 62.42 125.03 63.58 126.2 64.75 C 129.35 67.94 132.57 71.05 135.73 74.24 C 139.3 77.8 142.85 81.38 146.43 84.93 C 153.19 78.15 159.94667 71.37333 166.7 64.6 L 170.35 61 L 190.72 40.63 C 192.01 39.34 193.32 38.06 194.58 36.7 Z M 194.58 38.05 C 192.82 39.89 190.99 41.65 189.2 43.47 C 174.93333 57.68333 160.67 71.92 146.41 86.18 C 138.41 78.18 130.41 70.18 122.41 62.18 C 114.48333 70.14 106.54667 78.10333 98.6 86.07 C 96.13 83.66 93.72 81.19 91.27 78.76 L 78.48 66 C 77.4 64.94 76.37 63.84 75.26 62.83 C 61.77 62.83 48.26 62.83 34.77 62.83 C 34.77 64.06 34.77 65.29 34.77 66.52 C 47.54 66.52 60.31 66.52 73.08 66.52 C 73.35 66.52 73.69 66.42 73.91 66.62 L 98.72 91.4 C 106.62667 83.46667 114.54667 75.54667 122.48 67.64 L 122.63 67.64 L 136.7 81.67 C 139.96 84.95 143.27 88.19 146.49 91.5 C 146.76518 91.30656 147.01687 91.08171 147.24 90.83 C 162.99333 75.08333 178.74667 59.33333 194.5 43.58 C 202.5 51.58 210.5 59.58 218.5 67.58 C 220.67 65.31 222.96 63.15 225.17 60.91 L 242.37 43.71 C 242.7 43.6 242.88 44.13 243.15 44.29 C 250.69 51.823333 258.23 59.36 265.77 66.9 C 279.06333 66.9 292.35667 66.9 305.65 66.9 L 305.65 63 L 267.34 63 C 259.76 55.35 252.1 47.78 244.49 40.17 C 243.82 39.54 243.22 38.82 242.49 38.24 C 242.2007 38.59513 241.88657 38.929303 241.55 39.24 C 233.96 46.86 226.33 54.44 218.76 62.06 C 218.5255 61.93548 218.31813 61.765506 218.15 61.56 L 199.72 43.11 C 198 41.42 196.33 39.67 194.57 38 Z" fill="#221e1f"/>
          </g>
          <g id="Graphic_10">
            <title>path37</title>
            <path d="M 314.31746 148.78 C 315.22563 146.381 317.66088 144.91974 320.20336 145.24818 C 322.74583 145.57663 324.7304 147.60886 325 150.16 L 325 151.35 C 324.74467 153.62455 323.12017 155.50895 320.90923 156.09526 C 318.6983 156.68157 316.35443 155.84951 315.00698 154 C 313.90264 152.49663 313.632 150.53674 314.31746 148.78 Z M 318.5445 146.41 C 316.61822 146.79967 315.1809 148.41606 315.01797 150.37591 C 314.85503 152.33577 316.00568 154.16762 317.84114 154.87046 C 319.6766 155.5733 321.75534 154.97806 322.94144 153.41 C 324.0498 151.94473 324.1365 149.94604 323.1592 148.39017 C 322.1819 146.8343 320.34453 146.04588 318.5445 146.41 Z" fill="#221e1f"/>
          </g>
          <g id="Graphic_9">
            <title>path39</title>
            <path d="M 33.51 145.56 L 45.51 145.56 C 45.51 156.89333 45.51 168.22667 45.51 179.56 L 33.51 179.56 C 33.523333 168.21333 33.523333 156.88 33.51 145.56 Z" fill="#221e1f"/>
          </g>
          <g id="Graphic_8">
            <title>path41</title>
            <path d="M 107.39 145.55 L 132.87 145.55 C 132.87 147.96 132.87 150.37 132.87 152.77 C 128.36 152.77 123.87 152.77 119.34 152.77 C 119.34 154.77 119.34 156.77 119.34 158.71 C 123.48 158.71 127.61 158.71 131.75 158.71 L 131.75 165.88 L 119.35 165.88 C 119.35 168.03 119.35 170.18 119.35 172.33 C 123.94 172.33 128.53 172.33 133.11 172.33 C 133.11 174.72 133.11 177.11 133.11 179.5 L 107.39 179.5 C 107.38333 168.19333 107.38333 156.87667 107.39 145.55 Z" fill="#221e1f"/>
          </g>
          <g id="Graphic_7">
            <title>path43</title>
            <path d="M 191.5 145.56 L 224.69 145.56 C 224.69 148.42 224.69 151.27 224.69 154.12 L 214.05 154.12 C 214.05 162.58667 214.05 171.05667 214.05 179.53 L 202.14 179.53 C 202.14 171.06 202.14 162.59 202.14 154.12 L 191.51 154.12 C 191.5 151.26 191.51 148.41 191.5 145.56 Z" fill="#221e1f"/>
          </g>
          <g id="Graphic_6">
            <title>path45</title>
            <path d="M 284.25 145.55 L 309.1 145.55 C 309.1 147.95 309.1 150.36 309.1 152.77 C 304.8 152.77 300.50333 152.77 296.21 152.77 C 296.21 154.77 296.21 156.80333 296.21 158.87 L 308.34 158.87 L 308.34 166.08 C 304.29 166.08 300.25 166.08 296.21 166.08 C 296.21 170.55 296.21 175.08 296.21 179.5 L 284.25 179.5 Z" fill="#221e1f"/>
          </g>
          <g id="Graphic_5">
            <title>path47</title>
            <path d="M 317 147.78665 L 320.08 147.78665 C 320.63212 147.75134 321.1645 147.99818 321.49385 148.44221 C 321.8232 148.88625 321.9046 149.46685 321.71 149.98416 C 321.4834 150.6167 320.87207 151.0292 320.2 151.00301 C 320.86 151.30267 321.2 152.00188 321.52 152.57124 C 321.72 152.93083 321.96 153.27045 322.13 153.65002 L 320.62 153.65002 C 320.284 152.84749 319.814 152.1078 319.23 151.4625 C 318.9339 151.27194 318.57782 151.19725 318.23 151.25273 C 318.23 152.05183 318.23 152.85092 318.23 153.65002 C 317.81704 153.675 317.40296 153.675 316.99 153.65002 C 316.99 151.65228 316.99 149.73445 317 147.78665 Z M 318.24 148.72559 C 318.24 149.245 318.24 149.72446 318.24 150.28383 C 318.86677 150.34292 319.49903 150.29564 320.11 150.14398 C 320.34197 150.02894 320.4942 149.79832 320.5087 149.54003 C 320.52317 149.28174 320.39766 149.03559 320.18 148.8954 C 319.5452 148.72374 318.8843 148.66958 318.23 148.73558 Z" fill="#221e1f"/>
          </g>
          <g id="Graphic_4">
            <title>path50</title>
            <path d="M 194.57 38 C 196.33 39.66 198 41.41 199.72 43.1 L 218.17 61.56 C 218.33813 61.765506 218.5455 61.93548 218.78 62.06 C 226.35 54.44 233.98 46.86 241.57 39.24 C 241.90657 38.929303 242.2207 38.59513 242.51 38.24 C 243.22 38.82 243.82 39.54 244.51 40.17 C 252.12 47.78 259.78 55.35 267.36 63 L 305.65 63 L 305.65 66.83 C 292.35667 66.83 279.06333 66.83 265.77 66.83 C 258.21667 59.29667 250.67667 51.76 243.15 44.22 C 242.88 44.06 242.7 43.53 242.37 43.64 L 225.17 60.84 C 222.96 63.08 220.67 65.24 218.5 67.51 C 210.5 59.51 202.5 51.51 194.5 43.51 C 178.72667 59.25 162.97333 75 147.24 90.76 C 147.01687 91.01171 146.76518 91.23656 146.49 91.43 C 143.27 88.12 139.96 84.88 136.7 81.6 L 122.63 67.6 L 122.48 67.6 C 114.56 75.54 106.64 83.47333 98.72 91.4 L 73.89 66.58 C 73.67 66.38 73.33 66.52 73.06 66.48 C 60.29 66.48 47.52 66.48 34.75 66.48 C 34.75 65.25 34.75 64.02 34.75 62.79 C 48.25 62.79 61.75 62.79 75.24 62.79 C 76.35 63.79 77.38 64.9 78.46 65.96 L 91.27 78.76 C 93.72 81.19 96.13 83.66 98.6 86.07 C 106.55333 78.11 114.50667 70.16 122.46 62.22 C 130.46 70.22 138.46 78.22 146.46 86.22 C 160.74667 71.99333 175.00667 57.74333 189.24 43.47 C 191 41.61 192.81 39.85 194.57 38 Z" fill="#fdd34f"/>
          </g>
        </g>
      </g>
    </g>
  </g>
</svg>
